<svg width="640" height="400" viewBox="0 0 640 400" xmlns="http://www.w3.org/2000/svg">
  <defs>
    <linearGradient id="lumenflow-gradient" x1="0%" y1="100%" x2="100%" y2="0%">
      <stop offset="0%" stop-color="#0b1220"/>
      <stop offset="50%" stop-color="#162042"/>
      <stop offset="100%" stop-color="#5b1cf5"/>
    </linearGradient>
    <radialGradient id="lumenflow-glow" cx="20%" cy="30%" r="70%">
      <stop offset="0%" stop-color="#8f6bff" stop-opacity="0.9"/>
      <stop offset="65%" stop-color="#4c1d95" stop-opacity="0.25"/>
      <stop offset="100%" stop-color="#0b1220" stop-opacity="0"/>
    </radialGradient>
    <linearGradient id="lumenflow-line" x1="0%" y1="50%" x2="100%" y2="50%">
      <stop offset="0%" stop-color="#94a3ff" stop-opacity="0"/>
      <stop offset="45%" stop-color="#c4c7ff" stop-opacity="0.8"/>
      <stop offset="100%" stop-color="#94a3ff" stop-opacity="0"/>
    </linearGradient>
  </defs>
  <rect width="640" height="400" rx="32" fill="url(#lumenflow-gradient)"/>
  <ellipse cx="140" cy="120" rx="210" ry="160" fill="url(#lumenflow-glow)"/>
  <path d="M80 260 C180 210 270 300 360 250 C440 210 480 130 560 160" stroke="url(#lumenflow-line)" stroke-width="10" fill="none" stroke-linecap="round"/>
  <g opacity="0.25">
    <circle cx="520" cy="90" r="48" fill="#3b82f6"/>
    <circle cx="520" cy="90" r="24" fill="#1f2937"/>
    <circle cx="520" cy="90" r="12" fill="#8b5cf6"/>
  </g>
  <rect x="160" y="120" width="220" height="140" rx="24" fill="rgba(15,23,42,0.65)" stroke="rgba(148,163,255,0.35)" stroke-width="2"/>
  <circle cx="200" cy="160" r="22" fill="#38bdf8" opacity="0.6"/>
  <rect x="240" y="150" width="110" height="20" rx="10" fill="#c7d2fe" opacity="0.6"/>
  <rect x="200" y="188" width="120" height="14" rx="7" fill="#818cf8" opacity="0.4"/>
  <rect x="200" y="210" width="150" height="14" rx="7" fill="#f9a8d4" opacity="0.35"/>
</svg>

